<svg version="1.1" viewBox="0.0 0.0 288.1023622047244 286.86614173228344" fill="none" stroke="none" stroke-linecap="square" stroke-miterlimit="10" xmlns:xlink="http://www.w3.org/1999/xlink" xmlns="http://www.w3.org/2000/svg"><clipPath id="p.0"><path d="m0 0l288.10236 0l0 286.86615l-288.10236 0l0 -286.86615z" clip-rule="nonzero"/></clipPath><g clip-path="url(#p.0)"><path fill="#000000" fill-opacity="0.0" d="m0 0l288.10236 0l0 286.86615l-288.10236 0z" fill-rule="evenodd"/><path fill="#000000" d="m21.165354 139.48294l0 0c0 -65.56968 54.55076 -118.72441 121.84252 -118.72441l0 0c32.31465 0 63.30577 12.5084305 86.15567 34.773575c22.849915 22.265144 35.68686 52.463165 35.68686 83.950836l0 0c0 65.56969 -54.550766 118.724396 -121.84253 118.724396l0 0c-67.29176 0 -121.84252 -53.15471 -121.84252 -118.724396z" fill-rule="evenodd"/><path stroke="#000000" stroke-width="1.0" stroke-linejoin="round" stroke-linecap="butt" d="m21.165354 139.48294l0 0c0 -65.56968 54.55076 -118.72441 121.84252 -118.72441l0 0c32.31465 0 63.30577 12.5084305 86.15567 34.773575c22.849915 22.265144 35.68686 52.463165 35.68686 83.950836l0 0c0 65.56969 -54.550766 118.724396 -121.84253 118.724396l0 0c-67.29176 0 -121.84252 -53.15471 -121.84252 -118.724396z" fill-rule="evenodd"/><path fill="#ffffff" d="m107.2126 85.72441l0 0c0 -19.142975 16.026085 -34.66142 35.795273 -34.66142l0 0c9.4935 0 18.59816 3.6518173 25.31108 10.152096c6.712921 6.5002747 10.484192 15.316544 10.484192 24.509323l0 0c0 19.142967 -16.026093 34.661415 -35.795273 34.661415l0 0c-19.769188 0 -35.795273 -15.518448 -35.795273 -34.661415z" fill-rule="evenodd"/><path stroke="#000000" stroke-width="1.0" stroke-linejoin="round" stroke-linecap="butt" d="m107.2126 85.72441l0 0c0 -19.142975 16.026085 -34.66142 35.795273 -34.66142l0 0c9.4935 0 18.59816 3.6518173 25.31108 10.152096c6.712921 6.5002747 10.484192 15.316544 10.484192 24.509323l0 0c0 19.142967 -16.026093 34.661415 -35.795273 34.661415l0 0c-19.769188 0 -35.795273 -15.518448 -35.795273 -34.661415z" fill-rule="evenodd"/><path fill="#cfe2f3" d="m64.64567 188.26772l0 0c0 -20.29103 35.083954 -36.740158 78.362206 -36.740158l0 0c43.278244 0 78.3622 16.449127 78.3622 36.740158l0 0c0 20.29103 -35.083954 36.740158 -78.3622 36.740158l0 0c-43.27825 0 -78.362206 -16.449127 -78.362206 -36.740158z" fill-rule="evenodd"/><path stroke="#000000" stroke-width="1.0" stroke-linejoin="round" stroke-linecap="butt" d="m64.64567 188.26772l0 0c0 -20.29103 35.083954 -36.740158 78.362206 -36.740158l0 0c43.278244 0 78.3622 16.449127 78.3622 36.740158l0 0c0 20.29103 -35.083954 36.740158 -78.3622 36.740158l0 0c-43.27825 0 -78.362206 -16.449127 -78.362206 -36.740158z" fill-rule="evenodd"/></g></svg>